<?xml version="1.0" encoding="utf-8"?>
<!-- Generator: Adobe Illustrator 16.0.0, SVG Export Plug-In . SVG Version: 6.00 Build 0)  -->
<!DOCTYPE svg PUBLIC "-//W3C//DTD SVG 1.1//EN" "http://www.w3.org/Graphics/SVG/1.1/DTD/svg11.dtd">
<svg version="1.1"
	 id="svg2" inkscape:export-ydpi="90" inkscape:export-xdpi="90" inkscape:version="0.48.2 r9819" inkscape:export-filename="/home/user/remoteStorage.png" sodipodi:docname="remoteStorage.svg" xmlns:dc="http://purl.org/dc/elements/1.1/" xmlns:cc="http://creativecommons.org/ns#" xmlns:rdf="http://www.w3.org/1999/02/22-rdf-syntax-ns#" xmlns:svg="http://www.w3.org/2000/svg" xmlns:sodipodi="http://sodipodi.sourceforge.net/DTD/sodipodi-0.dtd" xmlns:inkscape="http://www.inkscape.org/namespaces/inkscape"
	 xmlns="http://www.w3.org/2000/svg" xmlns:xlink="http://www.w3.org/1999/xlink" x="0px" y="0px" width="378.448px" height="128px"
	 viewBox="0 0 378.448 128" enable-background="new 0 0 378.448 128" xml:space="preserve">
<defs>
	
	
		<inkscape:perspective  inkscape:persp3d-origin="372.04724 : 350.78739 : 1" id="perspective2985" inkscape:vp_z="744.09448 : 526.18109 : 1" inkscape:vp_y="0 : 1000 : 0" inkscape:vp_x="0 : 526.18109 : 1" sodipodi:type="inkscape:persp3d">
		</inkscape:perspective>
</defs>
<sodipodi:namedview  inkscape:snap-nodes="true" inkscape:snap-page="true" fit-margin-bottom="0" fit-margin-right="0" inkscape:window-maximized="1" inkscape:window-y="1" inkscape:window-x="0" inkscape:window-height="799" inkscape:window-width="1280" inkscape:current-layer="layer1" inkscape:document-units="px" inkscape:pageshadow="2" inkscape:pageopacity="0.0" showborder="true" gridtolerance="10" fit-margin-left="0" fit-margin-top="0" showgrid="true" inkscape:cy="80.43613" inkscape:cx="237.07954" inkscape:zoom="2.0000001" borderopacity="1.0" bordercolor="#666666" pagecolor="#ffffff" id="base">
	
		<inkscape:grid  type="xygrid" snapvisiblegridlinesonly="true" dotted="true" spacingy="16px" spacingx="16px" enabled="true" visible="true" empspacing="4" id="grid3021">
		</inkscape:grid>
</sodipodi:namedview>
<g id="layer1" transform="translate(-1328,-860.3519)" inkscape:groupmode="layer" inkscape:label="Layer 1">
	<g id="g3241">
		
			<radialGradient id="path4016-3-8-6_1_" cx="2559.4341" cy="287.2191" r="96" gradientTransform="matrix(0.5773 0 0 -0.6667 -94.1603 1115.8313)" gradientUnits="userSpaceOnUse">
			<stop  offset="0" style="stop-color:#FF4A04;stop-opacity:0.7615"/>
			<stop  offset="1" style="stop-color:#FF4A04"/>
		</radialGradient>
		<path id="path4016-3-8-6" inkscape:connector-curvature="0" fill="url(#path4016-3-8-6_1_)" d="M1383.421,860.352l1.155,60.545
			l54.267-28.541L1383.421,860.352L1383.421,860.352z M1383.421,860.352L1328,892.356l54.267,28.541L1383.421,860.352
			L1383.421,860.352z M1328,892.356v63.992l51.832-31.266L1328,892.356z M1328,956.348l55.421,32.004l-2.436-61.268L1328,956.348
			L1328,956.348z M1383.421,988.352l55.422-32.004l-53.004-29.264L1383.421,988.352L1383.421,988.352z M1438.843,956.348v-63.992
			l-51.85,32.726L1438.843,956.348z"/>
	</g>
	<g>
		<path d="M1457.533,897.754h38.331v9.446h-27.171v12.363h23.815v9.337h-23.815v22.539h-11.16V897.754z"/>
		<path d="M1531.737,946.576c-3.355,4.142-8.449,6.213-15.281,6.213c-6.833,0-11.927-2.071-15.281-6.213
			c-3.355-4.142-5.033-9.128-5.033-14.959c0-5.732,1.678-10.7,5.033-14.903c3.354-4.203,8.448-6.304,15.281-6.304
			c6.832,0,11.926,2.102,15.281,6.304c3.355,4.203,5.032,9.171,5.032,14.903C1536.769,937.448,1535.092,942.434,1531.737,946.576z
			 M1523.421,940.831c1.629-2.161,2.443-5.232,2.443-9.215c0-3.981-0.814-7.047-2.443-9.195c-1.63-2.147-3.964-3.223-7.003-3.223
			s-5.379,1.075-7.021,3.223c-1.641,2.148-2.462,5.214-2.462,9.195c0,3.982,0.821,7.054,2.462,9.215
			c1.642,2.16,3.981,3.24,7.021,3.24S1521.792,942.992,1523.421,940.831z"/>
		<path d="M1562.558,910.756c0.134,0.012,0.432,0.031,0.894,0.055v10.649c-0.656-0.072-1.24-0.121-1.75-0.146
			c-0.511-0.023-0.925-0.036-1.24-0.036c-4.183,0-6.99,1.361-8.425,4.084c-0.803,1.532-1.204,3.891-1.204,7.076v19.001h-10.467
			v-39.753h9.92v6.929c1.604-2.649,3.003-4.461,4.194-5.434c1.945-1.629,4.474-2.444,7.586-2.444
			C1562.26,910.737,1562.424,910.744,1562.558,910.756z"/>
		<path d="M1576.165,911.685v23.961c0,2.262,0.267,3.964,0.799,5.106c0.943,2.018,2.794,3.026,5.552,3.026
			c3.532,0,5.952-1.434,7.259-4.304c0.677-1.556,1.016-3.61,1.016-6.163v-21.627h10.54v39.753h-10.103v-5.616
			c-0.097,0.122-0.339,0.486-0.727,1.094c-0.389,0.608-0.849,1.144-1.382,1.604c-1.625,1.459-3.195,2.456-4.71,2.991
			c-1.516,0.534-3.292,0.802-5.328,0.802c-5.867,0-9.819-2.115-11.856-6.346c-1.14-2.334-1.709-5.774-1.709-10.321v-23.961H1576.165
			z"/>
		<path d="M1657.298,911.831c1.701,0.681,3.246,1.873,4.632,3.574c1.118,1.386,1.872,3.088,2.261,5.105
			c0.243,1.338,0.365,3.295,0.365,5.872l-0.073,25.056h-10.649v-25.311c0-1.508-0.243-2.747-0.729-3.721
			c-0.924-1.847-2.626-2.771-5.105-2.771c-2.87,0-4.851,1.191-5.945,3.574c-0.56,1.265-0.839,2.784-0.839,4.559v23.67h-10.467
			v-23.67c0-2.357-0.243-4.072-0.729-5.142c-0.875-1.921-2.59-2.882-5.143-2.882c-2.967,0-4.96,0.961-5.981,2.882
			c-0.56,1.094-0.839,2.723-0.839,4.887v23.925h-10.54v-39.68h10.103v5.799c1.289-2.066,2.504-3.538,3.647-4.413
			c2.018-1.556,4.632-2.334,7.841-2.334c3.039,0,5.495,0.669,7.367,2.006c1.508,1.24,2.65,2.833,3.429,4.777
			c1.361-2.334,3.051-4.048,5.069-5.142c2.139-1.094,4.522-1.641,7.148-1.641C1653.87,910.81,1655.596,911.151,1657.298,911.831z"/>
		<path d="M1678.437,938.747c0.22,1.848,0.696,3.16,1.429,3.938c1.295,1.386,3.688,2.079,7.183,2.079
			c2.052,0,3.683-0.304,4.893-0.912c1.209-0.607,1.813-1.52,1.813-2.735c0-1.167-0.487-2.055-1.461-2.662
			c-0.975-0.607-4.6-1.653-10.874-3.137c-4.518-1.118-7.7-2.517-9.548-4.194c-1.848-1.653-2.771-4.035-2.771-7.148
			c0-3.671,1.443-6.825,4.331-9.464c2.888-2.638,6.95-3.957,12.189-3.957c4.97,0,9.021,0.991,12.151,2.972
			c3.131,1.982,4.929,5.404,5.392,10.267h-10.394c-0.146-1.337-0.524-2.395-1.134-3.174c-1.146-1.409-3.098-2.115-5.852-2.115
			c-2.268,0-3.883,0.354-4.846,1.058c-0.963,0.706-1.444,1.532-1.444,2.48c0,1.191,0.512,2.055,1.536,2.59
			c1.023,0.56,4.641,1.52,10.853,2.881c4.141,0.973,7.244,2.443,9.312,4.413c2.042,1.994,3.063,4.485,3.063,7.477
			c0,3.938-1.469,7.154-4.404,9.646s-7.473,3.738-13.612,3.738c-6.262,0-10.884-1.319-13.868-3.957
			c-2.985-2.638-4.477-6-4.477-10.084H1678.437z"/>
	</g>
</g>
</svg>
